<svg xmlns="http://www.w3.org/2000/svg" width="24" height="24" fill="none" viewBox="0 0 24 24"><path fill="#FF7A59" d="M0 6a6 6 0 0 1 6-6h12a6 6 0 0 1 6 6v12a6 6 0 0 1-6 6H6a6 6 0 0 1-6-6z"></path><path fill="#fff" d="M16.001 9.439V7.653a1.38 1.38 0 0 0 .793-1.24v-.041c0-.76-.616-1.376-1.375-1.376h-.041a1.376 1.376 0 0 0-1.376 1.376v.04a1.38 1.38 0 0 0 .793 1.24V9.44a3.9 3.9 0 0 0-1.852.815L8.044 6.44q.052-.19.055-.386a1.55 1.55 0 1 0-1.551 1.546c.268 0 .531-.072.763-.207l4.824 3.754a3.91 3.91 0 0 0 .06 4.4l-1.468 1.468a1.3 1.3 0 0 0-.366-.06 1.273 1.273 0 1 0 1.273 1.274 1.3 1.3 0 0 0-.06-.366l1.452-1.452a3.914 3.914 0 1 0 2.975-6.971m-.602 5.875a2.009 2.009 0 1 1 0-4.015 2.008 2.008 0 0 1 .002 4.014"></path></svg>